HIERARCHY
ROOT Hips
{
	OFFSET 0.000000 0.000000 0.000000
	CHANNELS 6 Xposition Yposition Zposition Zrotation Yrotation Xrotation 
	JOINT LowerBack
	{
		OFFSET 0.000000 0.000000 0.000000
		CHANNELS 3 Zrotation Yrotation Xrotation
		JOINT Spine
		{
			OFFSET 0.028270 2.035590 -0.193380
			CHANNELS 3 Zrotation Yrotation Xrotation
			JOINT Spine1
			{
				OFFSET 0.056720 2.048850 -0.042750
				CHANNELS 3 Zrotation Yrotation Xrotation
				JOINT Neck
				{
					OFFSET 0.000000 0.000000 0.000000
					CHANNELS 3 Zrotation Yrotation Xrotation
					JOINT Neck1
					{
						OFFSET -0.054170 1.746240 0.172020
						CHANNELS 3 Zrotation Yrotation Xrotation
						JOINT Head
						{
							OFFSET 0.104070 1.761360 -0.123970
							CHANNELS 3 Zrotation Yrotation Xrotation
							End Site
							{
								OFFSET 0.000000 0.000000 0.000000
							}
						}
					}
				}
				JOINT LeftShoulder
				{
					OFFSET 0.000000 0.000000 0.000000
					CHANNELS 3 Zrotation Yrotation Xrotation
					JOINT LeftArm
					{
						OFFSET 3.362410 1.200890 -0.311210
						CHANNELS 3 Zrotation Yrotation Xrotation
						JOINT LeftForeArm
						{
							OFFSET 4.983000 -0.000000 -0.000000
							CHANNELS 3 Zrotation Yrotation Xrotation
							JOINT LeftHand
							{
								OFFSET 3.483560 -0.000000 -0.000000
								CHANNELS 3 Zrotation Yrotation Xrotation
								JOINT LeftFingerBase
								{
									OFFSET 0.000000 0.000000 0.000000
									CHANNELS 3 Zrotation Yrotation Xrotation
									JOINT LeftHandIndex1
									{
										OFFSET 0.715260 -0.000000 -0.000000
										CHANNELS 3 Zrotation Yrotation Xrotation
										End Site
										{
											OFFSET 0.000000 0.000000 0.000000
										}
									}
								}
								JOINT LThumb
								{
									OFFSET 0.000000 0.000000 0.000000
									CHANNELS 3 Zrotation Yrotation Xrotation
									End Site
									{
										OFFSET 0.000000 0.000000 0.000000
									}
								}
							}
						}
					}
				}
				JOINT RightShoulder
				{
					OFFSET 0.000000 0.000000 0.000000
					CHANNELS 3 Zrotation Yrotation Xrotation
					JOINT RightArm
					{
						OFFSET -3.136600 1.374050 -0.404650
						CHANNELS 3 Zrotation Yrotation Xrotation
						JOINT RightForeArm
						{
							OFFSET -5.241900 -0.000000 -0.000000
							CHANNELS 3 Zrotation Yrotation Xrotation
							JOINT RightHand
							{
								OFFSET -3.444170 -0.000000 -0.000000
								CHANNELS 3 Zrotation Yrotation Xrotation
								JOINT RightFingerBase
								{
									OFFSET 0.000000 0.000000 0.000000
									CHANNELS 3 Zrotation Yrotation Xrotation
									JOINT RightHandIndex1
									{
										OFFSET -0.622530 -0.000000 -0.000000
										CHANNELS 3 Zrotation Yrotation Xrotation
										End Site
										{
											OFFSET 0.000000 0.000000 0.000000
										}
									}
								}
								JOINT RThumb
								{
									OFFSET 0.000000 0.000000 0.000000
									CHANNELS 3 Zrotation Yrotation Xrotation
									End Site
									{
										OFFSET 0.000000 0.000000 0.000000
									}
								}
							}
						}
					}
				}
			}
		}
	}
}
}
MOTION
Frames: 7
Frame Time: 0.008333
16.324072 19.511399 0.879456 22.619263 -82.350435 -2.110052 -2.619589 -1.473845 -13.514043 -1.070561 -1.665405 -5.539188 -4.783694 -1.754218 -1.130025 7.227895 -7.654775 -4.149123 -1.485647 -0.170231 1.057067 0.000000 0.000000 0.000000 11.967107 7.638743 -2.848277 -20.897820 -34.637819 -31.292734 177.699287 -60.224605 179.567680 36.030099 -27.628373 -9.844387 -0.714980 1.495390 0.000000 0.000000 0.000000 0.000000 0.000000 0.000000 0.000000 -2.467677 -7.151970 -2.184523 28.681936 27.483742 -47.183797 -178.387816 59.359975 179.753110 -40.767518 36.156960 -14.522456 0.646462 -1.220780 -0.000000 0.000000 0.000000 0.000000 0.000000 0.000000 0.000000 
16.179990 19.739478 0.863941 22.255035 -82.517457 -2.398046 -2.633074 -1.436310 -13.457637 -1.103054 -1.630291 -5.486526 -4.832521 -1.717349 -0.942334 7.406255 -7.686916 -4.120694 -1.476491 -0.170265 1.065904 0.000000 0.000000 0.000000 11.952806 8.403194 -2.994082 -19.931202 -35.226669 -32.702514 177.588692 -57.929813 179.569092 36.145798 -28.437241 -10.192506 -0.752502 1.553636 -0.000000 0.000000 0.000000 0.000000 0.000000 0.000000 0.000000 -2.654374 -7.603894 -2.288945 28.034290 27.699954 -48.831166 -178.362425 56.431615 179.762922 -40.825162 36.698311 -14.802216 0.694184 -1.275604 0.000000 0.000000 0.000000 0.000000 0.000000 0.000000 0.000000 
16.043342 19.946187 0.845603 22.438936 -82.692173 -3.242747 -2.713873 -1.413445 -13.320159 -1.146182 -1.600804 -5.421011 -4.856500 -1.688475 -0.762849 7.555353 -7.737024 -4.131494 -1.452342 -0.168561 1.062771 0.000000 0.000000 0.000000 12.026939 9.213992 -3.132376 -19.042049 -35.816608 -34.244833 177.495794 -55.672972 179.571723 36.314336 -29.277851 -10.572882 -0.792773 1.614109 -0.000000 0.000000 0.000000 0.000000 0.000000 0.000000 0.000000 -2.906280 -8.106509 -2.382471 27.430792 28.009303 -50.499215 -178.357416 53.608634 179.773374 -40.995692 37.270225 -15.142767 0.745662 -1.334116 -0.000000 0.000000 0.000000 0.000000 0.000000 0.000000 0.000000 
15.912859 20.132406 0.824672 23.159267 -82.879326 -4.616556 -2.853347 -1.401614 -13.120692 -1.197565 -1.575092 -5.345479 -4.854813 -1.665824 -0.590094 7.673164 -7.815439 -4.183724 -1.414351 -0.165175 1.047376 0.000000 0.000000 0.000000 12.190582 10.072998 -3.262535 -18.271431 -36.387203 -35.895607 177.425438 -53.453962 179.575869 36.553957 -30.146946 -10.991610 -0.836070 1.675993 -0.000000 0.000000 0.000000 0.000000 0.000000 0.000000 0.000000 -3.215407 -8.668913 -2.467539 26.881091 28.408895 -52.162105 -178.373338 50.894455 179.784592 -41.310106 37.895988 -15.568904 0.800898 -1.396339 -0.000000 0.000000 0.000000 0.000000 0.000000 0.000000 0.000000 
15.787091 20.299882 0.801867 24.284386 -83.078246 -6.368539 -3.026787 -1.397413 -12.882845 -1.251858 -1.553009 -5.263199 -4.829853 -1.648725 -0.420830 7.760092 -7.930438 -4.279012 -1.365943 -0.160324 1.019565 0.000000 0.000000 0.000000 12.421568 10.985775 -3.383157 -17.634488 -36.933572 -37.630172 177.383124 -51.276815 179.581782 36.882964 -31.043221 -11.456472 -0.882808 1.738743 -0.000000 0.000000 0.000000 0.000000 0.000000 0.000000 0.000000 -3.559780 -9.298641 -2.547604 26.378003 28.896751 -53.793890 -178.410730 48.296452 179.796738 -41.792722 38.591161 -16.101027 0.859729 -1.462056 -0.000000 0.000000 0.000000 0.000000 0.000000 0.000000 0.000000 
15.664811 20.450594 0.777936 25.646525 -83.286441 -8.312785 -3.208183 -1.397944 -12.631315 -1.303567 -1.534869 -5.178027 -4.785173 -1.636874 -0.252767 7.818552 -8.083673 -4.415816 -1.311016 -0.154303 0.980043 0.000000 0.000000 0.000000 12.696743 11.946809 -3.491922 -17.141102 -37.444260 -39.423680 177.373589 -49.143255 179.589691 37.313785 -31.960289 -11.972447 -0.933398 1.801896 -0.000000 0.000000 0.000000 0.000000 0.000000 0.000000 0.000000 -3.916576 -9.994283 -2.625094 25.911757 29.460255 -55.372281 -178.469510 45.816968 179.809925 -42.455080 39.358637 -16.751234 0.921895 -1.530971 -0.000000 0.000000 0.000000 0.000000 0.000000 0.000000 0.000000 
15.544952 20.586747 0.753553 27.093784 -83.503096 -10.282221 -3.377578 -1.400306 -12.387953 -1.348591 -1.520182 -5.093944 -4.724628 -1.629294 -0.085762 7.851926 -8.269076 -4.588983 -1.253092 -0.147439 0.930466 0.000000 0.000000 0.000000 12.998018 12.939005 -3.585954 -16.795885 -37.901189 -41.253421 177.399634 -47.057790 179.599719 37.852760 -32.883068 -12.539218 -0.988083 1.864783 -0.000000 0.000000 0.000000 0.000000 0.000000 0.000000 0.000000 -4.266700 -10.742489 -2.700680 25.473597 30.072527 -56.881549 -178.548377 43.462243 179.824189 -43.294471 40.188820 -17.520730 0.986820 -1.602442 -0.000000 0.000000 0.000000 0.000000 0.000000 0.000000 0.000000 
